<?xml version="1.0" encoding="iso-8859-1"?>
<!-- Generator: Adobe Illustrator 20.1.0, SVG Export Plug-In . SVG Version: 6.00 Build 0)  -->
<svg version="1.1" id="Layer_1" xmlns="http://www.w3.org/2000/svg" xmlns:xlink="http://www.w3.org/1999/xlink" x="0px" y="0px"
	 viewBox="0 0 1247.757 536.761" style="enable-background:new 0 0 1247.757 536.761;" xml:space="preserve">
<path style="fill:#50D64C;" d="M128.361,251.669c83.174,180.153,314.278,149.193,504.639,87.935
	c179.784-57.855,313.73-144.06,566.776-61.099C928.44,220.7,844.955,308.099,651.206,372.425
	C447.123,440.183,172.804,472.953,110.812,268.95C91.203,220.7,110.812,215.335,128.361,251.669z"/>
<path style="fill:#50D64C;" d="M112.838,151.228c5.74,32.359,28.046,61.231,34.528,72.961c1.212,2.193-0.687,4.732-3.164,4.358
	c-11.945-1.807-26.144-12.085-33.884-18.214c-3.279-2.597-7.978-2.416-10.96,0.517c-9.052,8.905-34.396,45.147-72.129,127.238
	c-1.251,2.721-5.331,1.498-4.874-1.462c7.074-45.818,47.597-144.009,82.518-187.505
	C107.309,146.087,112.158,147.395,112.838,151.228z"/>
<path style="fill:#50D64C;" d="M161.22,220.702c0.482-8.444,0.482-17.613,0.482-17.613V92.586
	c-0.482-20.026-1.688-21.232-5.791-27.022l1.93-5.067h40.292l44.394-0.724c5.549,8.203,6.515,19.543,3.137,29.194h-5.549
	c-1.448-7.238-13.029-12.305-22.438-12.788l-21.232-0.965c-0.724,12.787-1.447,40.051-1.447,55.251h30.159
	c5.308,0,11.099,0,15.441-4.343c0.483,3.137,0.724,5.791,0.724,8.203c0,11.822-10.134,14.959-21.956,14.959
	c-8.686,0-17.13-0.482-24.609-0.482c-0.242,25.092,0.724,53.321,0.724,53.321s0.241,12.788,2.171,18.578H161.22z"/>
<path style="fill:#50D64C;" d="M276.303,220.702c0-14.235,1.207-49.22,1.207-82.274c0-24.127-9.168-28.229-12.305-29.194v-4.343
	c5.308-3.378,14.235-8.444,25.816-8.444c9.892,0,15.2,4.825,15.2,14.476c0,0.724-0.965,6.756-1.447,11.34
	c3.619-8.927,18.095-27.022,33.295-27.022c14.718,0,20.025,8.927,20.025,16.648c0,8.203-6.032,15.683-15.683,15.683
	c-0.724,0-1.689-0.241-2.654-0.241c-1.448-6.997-6.032-9.651-11.099-9.651c-20.025,0-22.68,22.438-22.68,46.565
	c0,22.679,0.241,37.879,3.137,56.458H276.303z"/>
<path style="fill:#50D64C;" d="M365.091,161.59c0-37.397,26.54-66.35,63.455-66.35c28.711,0,55.251,20.75,55.251,62.007
	c0,34.984-26.057,66.591-63.455,66.591C366.297,223.838,365.091,165.45,365.091,161.59z M397.904,151.698
	c0,31.607,12.305,58.146,28.953,58.146c13.028,0,23.886-18.819,23.886-45.118c0-30.883-13.994-55.01-30.883-55.01
	C404.177,109.716,397.904,134.326,397.904,151.698z"/>
<path style="fill:#50D64C;" d="M615.527,240.245c0,26.058-31.606,41.499-61.524,41.499c-27.988,0-54.045-9.41-54.045-28.47
	c0-9.41,7.962-14.477,16.406-14.477c5.067,0,10.375,2.413,14.477,6.997c-0.482,1.689-0.965,3.619-0.965,6.514
	c0,11.099,12.305,17.613,25.333,17.613c15.683,0,32.813-8.445,32.813-21.956c0-12.305-16.166-12.305-31.607-13.029
	c-22.438-0.965-47.29-4.102-47.29-25.092c0-10.857,7.238-19.061,18.337-24.127c-11.34-6.756-22.68-20.508-22.68-39.327
	c0-27.264,21.232-51.15,52.115-51.15c9.168,0,19.061,2.413,26.541,8.444l4.825-4.825h18.819c3.136,0,8.927,0.241,12.305-4.826
	c1.206,3.137,1.93,5.791,1.93,8.204c0,8.686-6.755,12.546-15.441,12.546c-2.895,0-6.755-0.724-10.615-2.413
	c-1.689-0.724-2.654-0.724-3.137-0.482c3.619,3.377,14.477,14.717,14.477,31.365c0,32.089-25.334,49.461-52.115,49.461
	c-6.756,0-13.994-1.207-19.784-2.896c-1.448,1.93-3.86,5.067-3.86,8.686C530.84,220.46,615.527,189.336,615.527,240.245z
	 M535.665,137.222c0,26.057,8.203,44.394,22.68,44.394c9.651,0,17.854-10.857,17.854-28.229c0-26.781-8.204-44.876-22.921-44.876
	C541.697,108.51,535.665,125.641,535.665,137.222z"/>
<path style="fill:#1F1F1F;" d="M633.377,197.057c0-3.619,1.206-7.479,3.86-11.099c3.137,11.099,24.368,18.578,37.397,18.578
	c12.063,0,27.746-4.102,27.746-20.508c0-25.816-69.969-36.915-69.969-81.791c0-21.956,16.406-45.118,48.979-45.118
	c21.714,0,35.226,8.204,42.705,12.546c0.724,2.171,0.965,5.066,0.965,8.444c0,6.032-1.689,14.477-7.238,20.025l-5.549-1.206
	c-5.309-16.648-22.68-23.886-33.537-23.886c-8.928,0-21.232,4.102-21.232,17.613c0,30.159,75.036,37.879,75.036,85.893
	c0,25.816-22.921,47.29-56.94,47.29C651.714,223.838,633.377,211.051,633.377,197.057z"/>
<path style="fill:#1F1F1F;" d="M836.284,220.702c0,0-0.725-3.619-0.725-7.721c0-19.061,0.483-43.429,0.483-62.489
	c0.241-22.197-2.896-32.813-14.477-32.813c-13.753,0-22.197,5.791-28.712,11.822c0,10.616-0.482,47.53,0.725,72.14
	c0.241,5.067,0.965,13.752,1.93,19.061H761.73l0.241-7.479l0.966-74.794c0.241-27.022-12.306-29.194-12.306-29.194v-4.343
	c5.55-3.378,14.477-8.444,26.058-8.444c9.893,0,14.959,6.273,16.407,13.511l-0.242,6.755c8.928-9.168,22.68-21.473,40.293-21.473
	c16.406,0,27.987,9.651,31.848,22.438c6.997-9.168,23.645-22.438,40.293-22.438c20.267,0,33.054,14.476,33.536,31.848
	c0,38.604-1.688,63.454,2.413,93.613h-32.813c0,0-0.724-3.619-0.724-7.721c0-19.061,0.482-43.429,0.482-62.489
	c0.241-22.197-2.895-32.813-14.476-32.813c-12.547,0-20.75,4.825-27.022,10.375c0,38.121-1.689,62.73,2.412,92.648H836.284z"/>
<path style="fill:#1F1F1F;" d="M1013.613,220.702h-33.777l1.206-82.274c0-27.022-12.063-29.194-12.305-29.194v-4.343
	c5.549-3.378,14.477-8.444,26.057-8.444c13.753,0,17.372,10.375,17.372,22.921c0,7.479-1.206,16.165-1.206,25.092v23.645
	C1010.959,186.441,1011.201,203.571,1013.613,220.702z M993.829,48.675c8.686,0,16.165,7.479,16.165,16.889
	c0,8.927-7.479,16.165-16.165,16.165c-9.168,0-16.889-7.238-16.889-16.165C976.94,56.154,984.661,48.675,993.829,48.675z"/>
<path style="fill:#1F1F1F;" d="M1051.971,220.702c0.482-24.61,0.724-47.048,0.724-68.521c0-42.705,0.482-75.759,0.482-75.759
	c0-17.372-6.997-26.057-12.305-27.505v-4.343c0,0,12.063-7.238,24.609-7.238c15.924,0,19.784,8.927,19.784,24.127
	c0,4.825-0.241,10.616-0.724,16.889c-0.965,15.924-1.447,40.292-1.447,63.455c0,34.02-0.483,56.94,2.653,78.896H1051.971z"/>
<path style="fill:#1F1F1F;" d="M1211.69,154.352c-4.825,1.93-10.133,2.413-16.165,2.413l-53.563-0.724
	c0.241,2.654,0.241,6.273,0.241,8.927c0.724,25.092,18.096,37.639,33.055,37.639c11.34,0,28.47-4.102,40.533-22.197
	c6.756,26.54-23.162,43.429-50.908,43.429s-52.839-16.889-53.321-57.905c0-38.845,21.474-69.486,54.527-69.486
	c45.842,0,47.772,39.568,47.772,51.391v5.549L1211.69,154.352z M1142.203,144.701c14.235-0.242,27.746-1.207,42.705-1.448
	c-0.241-14.718-6.031-32.089-20.267-32.089C1151.131,111.164,1145.581,126.847,1142.203,144.701z"/>
<path style="fill:#50D64C;" d="M712.828,359.358c-4.476,1.859-3.812,8.359,0.943,9.297c27.543,5.433,78.909,23.561,125.87,95.921
	c84.332,139.064,178.437-23.457,87.124-122.309c-35.865-38.826-84.166-36.734-84.166-36.734l-32.069,13.068
	c0,0,73.93,2.723,103.67,105.782c-54.453-104.944-129.43-92.378-129.43-92.378L712.828,359.358z"/>
</svg>
